<svg width="76" height="78" viewBox="0 0 76 78" fill="none" xmlns="http://www.w3.org/2000/svg">
<path d="M73.9688 27.3743C73.3732 21.6172 72.7756 15.8594 72.176 10.1008C71.9206 7.64993 68.9895 6.5128 67.1508 8.16081L64.388 10.6328C61.9099 7.87581 58.9105 5.63661 55.5629 4.04433C52.2152 2.45205 48.5855 1.53819 44.8829 1.35544C41.1804 1.17269 37.4783 1.72468 33.9901 2.97956C30.5019 4.23444 27.2966 6.1674 24.5591 8.66699C36.0952 6.34447 47.4488 12.3362 53.3404 20.5256L50.6589 22.927C48.7389 24.6456 49.7171 27.8263 52.2657 28.1759L70.5492 30.6832C71.0032 30.7454 71.4655 30.7036 71.901 30.561C72.3366 30.4184 72.734 30.1787 73.0634 29.86C73.3927 29.5413 73.6453 29.152 73.8022 28.7214C73.9591 28.2907 74.016 27.8301 73.9688 27.3743Z" fill="#4B1F87"/>
<path d="M70.9694 32.0358C70.769 32.0355 70.5688 32.0217 70.3703 31.9946L52.0856 29.4873C51.2632 29.3748 50.4903 29.0292 49.858 28.4914C49.2258 27.9536 48.7608 27.246 48.5179 26.4523C48.275 25.6587 48.2644 24.812 48.4874 24.0125C48.7103 23.213 49.1575 22.494 49.776 21.9405L51.5488 20.3526C46.201 13.6428 35.8844 7.73704 24.8204 9.96539L20.1506 10.9071L23.6656 7.69231C29.2865 2.55974 36.6783 -0.193762 44.2873 0.0106152C51.8962 0.214992 59.1296 3.36133 64.4668 8.78824L66.2667 7.17907C66.8638 6.64474 67.597 6.28575 68.3852 6.14169C69.1734 5.99763 69.9861 6.07412 70.7337 6.3627C71.4812 6.65129 72.1344 7.14076 72.6214 7.77711C73.1084 8.41346 73.4101 9.17196 73.4932 9.96892L75.286 27.2377C75.3478 27.8425 75.2823 28.4535 75.0937 29.0315C74.9051 29.6094 74.5977 30.1415 74.1911 30.5934C73.7845 31.0453 73.2878 31.4072 72.7329 31.6556C72.1781 31.904 71.5773 32.0335 70.9694 32.0358ZM29.6514 6.84476C33.6643 6.84476 37.7208 7.72174 41.6089 9.45097C46.726 11.7264 51.2757 15.3873 54.4199 19.7581L55.1156 20.7246L51.5476 23.9193C51.3057 24.1357 51.1307 24.4169 51.0435 24.7295C50.9563 25.0421 50.9604 25.3732 51.0553 25.6836C51.1503 25.994 51.3321 26.2707 51.5794 26.481C51.8266 26.6913 52.1289 26.8265 52.4505 26.8705L70.734 29.3766C70.9892 29.4117 71.2491 29.3883 71.494 29.3082C71.7389 29.2281 71.9624 29.0934 72.1476 28.9143C72.3327 28.7351 72.4747 28.5162 72.5629 28.2741C72.651 28.032 72.6829 27.773 72.6563 27.5167L70.8588 10.2397C70.8266 9.92794 70.7088 9.63118 70.5185 9.38218C70.3282 9.13319 70.0728 8.94165 69.7804 8.82874C69.4881 8.71582 69.1702 8.68592 68.8619 8.74234C68.5537 8.79876 68.267 8.93931 68.0336 9.14845L64.2879 12.5033L63.4039 11.5216C59.1666 6.80703 53.3938 3.74923 47.1131 2.89257C40.8324 2.03591 34.4515 3.43601 29.1064 6.84359C29.2853 6.84005 29.4666 6.83888 29.6467 6.83888L29.6514 6.84476Z" fill="#4B1F87"/>
<path d="M45.4217 77.993C44.5958 77.9921 43.7873 77.7556 43.091 77.3114L28.4342 67.9966C27.8783 67.6432 27.4098 67.1681 27.0644 66.6072C26.7189 66.0462 26.5054 65.4141 26.4399 64.7586C26.3745 64.1031 26.4589 63.4412 26.6867 62.8231C26.9146 62.2049 27.2798 61.6466 27.755 61.1903L32.8827 56.1286C33.0048 55.9993 33.1516 55.896 33.3145 55.8248C33.4774 55.7535 33.6529 55.7158 33.8307 55.7138C34.0085 55.7118 34.1848 55.7457 34.3492 55.8133C34.5136 55.8809 34.6627 55.981 34.7876 56.1075C34.9126 56.234 35.0107 56.3843 35.0763 56.5496C35.1419 56.7148 35.1735 56.8916 35.1693 57.0693C35.1651 57.247 35.1251 57.4221 35.0518 57.5841C34.9785 57.746 34.8734 57.8916 34.7426 58.012L29.602 63.0938C29.4132 63.2713 29.2674 63.4896 29.1758 63.732C29.0842 63.9745 29.0492 64.2346 29.0735 64.4927C29.0978 64.7507 29.1808 64.9997 29.316 65.2208C29.4513 65.4419 29.6352 65.6291 29.8539 65.7683L44.5106 75.0819C44.7751 75.2498 45.0808 75.3414 45.394 75.3467C45.7072 75.3519 46.0158 75.2705 46.2857 75.1115C46.5557 74.9525 46.7764 74.722 46.9237 74.4455C47.071 74.169 47.139 73.8573 47.1203 73.5445L46.8155 68.5252L48.1327 68.4416C54.4595 68.0455 60.4405 65.4167 65.0105 61.0235C69.5805 56.6302 72.443 50.7576 73.0883 44.4512C70.5527 47.7861 67.2308 50.5724 63.2932 52.636C63.139 52.7188 62.9699 52.7701 62.7957 52.7872C62.6215 52.8042 62.4456 52.7865 62.2783 52.7351C62.111 52.6838 61.9555 52.5998 61.8209 52.4879C61.6862 52.3761 61.575 52.2387 61.4938 52.0836C61.4126 51.9286 61.3629 51.759 61.3477 51.5846C61.3324 51.4103 61.3519 51.2346 61.4049 51.0678C61.458 50.901 61.5435 50.7464 61.6567 50.6128C61.7699 50.4793 61.9084 50.3696 62.0643 50.2899C67.0319 47.6861 70.9176 43.8356 73.3002 39.1529L75.4614 34.9081L75.8016 39.6591C76.3382 47.252 73.9098 54.7573 69.027 60.5968C64.1442 66.4363 57.1875 70.1551 49.6194 70.9713L49.7666 73.3844C49.802 73.9767 49.7161 74.57 49.514 75.1279C49.3119 75.6857 48.998 76.1965 48.5915 76.6287C48.185 77.0609 47.6944 77.4054 47.15 77.6413C46.6055 77.8771 46.0186 77.9992 45.4252 78L45.4217 77.993Z" fill="#4B1F87"/>
</svg>
