<svg width="36" height="26" viewBox="0 0 36 26" fill="none" xmlns="http://www.w3.org/2000/svg">
<path fill-rule="evenodd" clip-rule="evenodd" d="M3.93774 0C2.89346 0 1.89195 0.399478 1.15353 1.11055C0.415113 1.82163 0.000273395 2.78605 0.000273395 3.79167L0.000273395 5.38633C-9.11317e-05 5.40583 -9.11317e-05 5.42533 0.000273395 5.44483L0.000273395 22.2083C0.000273395 24.3013 1.76426 26 3.93774 26H32.0625C33.1068 26 34.1083 25.6005 34.8467 24.8894C35.5852 24.1784 36 23.2139 36 22.2083V3.79167C36 2.78605 35.5852 1.82163 34.8467 1.11055C34.1083 0.399478 33.1068 0 32.0625 0H3.93774ZM32.625 4.485V3.79167C32.625 3.64801 32.5658 3.51023 32.4603 3.40865C32.3548 3.30707 32.2117 3.25 32.0625 3.25H3.93774C3.78856 3.25 3.64549 3.30707 3.54 3.40865C3.43451 3.51023 3.37525 3.64801 3.37525 3.79167V4.485L18.0001 12.74L32.625 4.485ZM3.37525 8.255V22.2105C3.37525 22.5095 3.62725 22.7522 3.93774 22.7522H32.0625C32.2117 22.7522 32.3548 22.6951 32.4603 22.5935C32.5658 22.4919 32.625 22.3542 32.625 22.2105V8.25283L18.8551 16.0268C18.5959 16.1735 18.3008 16.2509 18.0001 16.2509C17.6995 16.2509 17.4043 16.1735 17.1451 16.0268L3.37525 8.25283V8.255Z" fill="#A27BD5"/>
</svg>
